<svg xmlns="http://www.w3.org/2000/svg" viewBox="0 0 192 192"><defs><style>.cls-1{fill:#fff;}</style></defs><title>DC_logo</title><g id="Capa_2" data-name="Capa 2"><g id="Capa_1-2" data-name="Capa 1"><path class="cls-1" d="M91,0h9.76c.14.24.38.14.58.15a91,91,0,0,1,9.61,1,96,96,0,0,1,80.73,87.16,7.55,7.55,0,0,0,.28,2.41v10.56c-.21.12-.14.33-.15.5-.15,2.58-.42,5.15-.77,7.71a94.11,94.11,0,0,1-10.68,32.34,95.92,95.92,0,0,1-76.7,49.89,9.77,9.77,0,0,0-2.58.28H90.88c-.13-.19-.33-.14-.51-.15a92.11,92.11,0,0,1-14.32-1.92,93.39,93.39,0,0,1-42.86-21.35Q3.63,142.57.27,103.21A6.85,6.85,0,0,0,0,101V91c.26-.17.15-.43.16-.66a95.31,95.31,0,0,1,16-47.66A96,96,0,0,1,88.87.26,5.52,5.52,0,0,0,91,0Zm78.53,46.08A88.69,88.69,0,0,0,85.21,7.71,87.13,87.13,0,0,0,49.73,20a89.5,89.5,0,0,0-27.35,26h52a2,2,0,0,1,1.32.42q9.09,6.8,18.21,13.56a1.21,1.21,0,0,1,.57,1.11q0,37.49,0,75a1.13,1.13,0,0,1-.53,1q-9,6.53-18.07,13.09a2.65,2.65,0,0,1-1.69.52H27c-.3,0-.63-.11-.92.1,15.28,20.13,44.61,37.73,80.76,33.43a87.36,87.36,0,0,0,32.86-10.8,89.18,89.18,0,0,0,26.4-22.74H122a2.44,2.44,0,0,1-1.54-.49q-8.82-6.49-17.67-12.95a1.63,1.63,0,0,1-.78-1.5q0-37.23,0-74.47a1.53,1.53,0,0,1,.67-1.4q9-6.7,18-13.47a2,2,0,0,1,1.31-.43c5.87,0,11.74.11,17.6,0a8.61,8.61,0,0,1,6.32,2.08c2,1.78,4.33,3.27,6.57,4.93.94-2.1,1.88-4.12,2.77-6.17a1.14,1.14,0,0,1,1.23-.81C160.78,46.1,165.13,46.08,169.57,46.08Zm3.36,94.29a83.52,83.52,0,0,0,10.4-27.3,89.39,89.39,0,0,0,.82-29.19,86,86,0,0,0-8.73-27.82c-.61,3.38-1.14,6.75-1.66,10.11-.93,6-1.87,12-2.78,18-.09.59-.26.83-.93.82q-10.59,0-21.19,0c-.76,0-.86-.24-.85-.9,0-4.4,0-8.8,0-13.2,0-.64-.12-.85-.82-.85-8.18,0-16.37,0-24.55,0-.22,0-.47-.12-.69.15,2.1,1.52,4.18,3,6.28,4.54a1.14,1.14,0,0,1,.54,1c0,2.48,0,5,0,7.44,0,11.79,0,23.57,0,35.36a8.34,8.34,0,0,0,8.17,8.61c3.4.13,6.82,0,10.23.07.66,0,.85-.15.85-.83,0-4,0-8,0-12,0-.7.15-.89.87-.88q11.59,0,23.2,0c.71,0,.88.17.87.87,0,7.92,0,15.84,0,23.76ZM41.32,70.17c.24.2.46.38.69.54,1.83,1.33,3.65,2.67,5.51,4a1.34,1.34,0,0,1,.63,1.25c0,6.58,0,13.17,0,19.75q0,15.39,0,30.78c0,.59.1.84.77.83,3.17,0,6.35,0,9.52,0a8.83,8.83,0,0,0,9.15-9.19q0-19.42,0-38.86a8.81,8.81,0,0,0-9.18-9.15c-5.41,0-10.82,0-16.23,0A1.43,1.43,0,0,0,41.32,70.17ZM21.45,144.28v-.54q0-35.31,0-70.61a1.09,1.09,0,0,0-.55-1c-2.68-1.84-5.36-3.68-8-5.57-.62-.44-.75-.3-1,.35a89.46,89.46,0,0,0,1.51,62.28A77.92,77.92,0,0,0,21.45,144.28Z"/></g></g></svg>